<?xml version="1.0" standalone="no"?>
<!DOCTYPE svg PUBLIC "-//W3C//DTD SVG 20010904//EN"
 "http://www.w3.org/TR/2001/REC-SVG-20010904/DTD/svg10.dtd">
<svg version="1.0" xmlns="http://www.w3.org/2000/svg"
 width="700.000000pt" height="700.000000pt" viewBox="0 0 700.000000 700.000000"
 preserveAspectRatio="xMidYMid meet">
<metadata>
Created by potrace 1.14, written by Peter Selinger 2001-2017
</metadata>
<g transform="translate(0.000000,700.000000) scale(0.100000,-0.100000)"
fill="#000000" stroke="none">
<path d="M3278 6996 c-1 -2 -39 -6 -83 -10 -111 -8 -255 -29 -365 -51 -14 -3
-38 -8 -55 -10 -122 -22 -466 -129 -615 -191 -108 -46 -387 -189 -487 -251
-129 -80 -295 -199 -413 -296 -123 -102 -381 -364 -483 -492 -380 -475 -628
-1024 -727 -1609 -22 -132 -24 -150 -37 -286 -15 -161 -8 -605 11 -707 2 -10
7 -43 10 -73 7 -62 12 -94 26 -165 6 -27 12 -59 14 -71 25 -131 131 -486 170
-569 8 -16 24 -54 35 -83 26 -66 152 -318 186 -372 14 -22 25 -44 25 -50 0 -5
5 -10 10 -10 6 0 10 -5 10 -11 0 -18 161 -249 264 -379 122 -153 382 -414 531
-533 392 -314 841 -540 1312 -662 72 -19 144 -37 160 -40 90 -17 240 -43 253
-43 8 0 31 -3 50 -6 170 -27 676 -28 842 -1 13 2 46 7 73 10 72 10 86 12 120
19 17 3 44 8 60 11 594 113 1184 405 1650 819 421 375 715 799 943 1359 48
117 135 413 158 537 2 14 7 36 10 50 3 14 7 36 9 50 3 24 10 63 20 120 2 14 7
52 11 85 4 33 9 76 11 95 8 72 10 518 2 602 -13 138 -21 207 -39 308 -6 36
-13 79 -16 95 -23 129 -109 427 -171 585 -374 962 -1168 1719 -2148 2048 -168
57 -420 119 -555 137 -19 3 -46 7 -60 10 -13 2 -54 7 -90 11 -36 3 -76 8 -90
11 -27 5 -536 14 -542 9z m479 -230 c44 -4 90 -8 102 -11 12 -2 50 -7 84 -10
49 -5 258 -44 370 -70 86 -20 307 -93 427 -143 610 -250 1132 -680 1494 -1230
164 -250 279 -485 374 -767 29 -86 78 -260 87 -308 3 -12 11 -56 19 -97 54
-277 72 -564 53 -850 -9 -141 -14 -181 -43 -350 -145 -855 -648 -1636 -1374
-2132 -326 -223 -698 -390 -1065 -478 -146 -35 -162 -38 -300 -59 -174 -26
-308 -35 -495 -35 -204 1 -308 10 -525 44 -159 26 -160 26 -294 61 -267 70
-529 176 -756 304 -44 24 -87 48 -95 52 -8 4 -69 43 -135 87 -609 408 -1076
1020 -1296 1701 -30 90 -76 255 -85 298 -5 30 -18 91 -19 97 -1 3 -5 25 -9 50
-4 25 -9 54 -11 65 -2 11 -6 45 -10 75 -4 30 -9 66 -11 80 -17 105 -22 409
-10 595 6 103 10 136 21 210 3 17 7 48 10 70 25 166 88 415 153 595 193 537
540 1033 987 1410 119 99 388 284 499 341 17 9 65 34 106 56 148 78 366 166
550 221 65 20 118 33 122 31 2 0 15 4 29 10 15 5 46 13 70 16 24 4 47 9 51 11
18 11 336 55 438 60 63 4 116 7 118 9 4 4 290 -3 369 -9z"/>
<path d="M3207 6564 c-1 -1 -36 -5 -77 -8 -91 -8 -108 -11 -114 -17 -5 -4 -9
-99 -22 -544 -4 -121 -7 -236 -8 -255 -1 -31 2 -35 24 -34 41 2 175 16 181 20
5 3 8 38 14 189 6 168 17 410 19 412 0 0 28 -58 60 -130 153 -340 144 -325
185 -329 20 -1 50 -2 67 0 31 3 34 9 129 220 116 257 114 254 113 227 -1 -24
10 -287 18 -430 3 -55 6 -115 7 -132 0 -30 3 -33 31 -33 17 -1 49 -4 71 -7 22
-3 55 -7 74 -7 l35 -1 -3 105 c-2 58 -4 150 -6 205 -2 55 -6 194 -10 310 -3
115 -8 212 -11 214 -2 3 -14 6 -27 7 -33 3 -198 15 -231 17 -28 2 -29 0 -125
-245 -92 -236 -111 -278 -111 -248 0 7 -30 90 -67 184 -36 94 -74 191 -83 216
-40 105 -34 98 -84 97 -26 0 -47 -1 -49 -3z"/>
<path d="M5187 5972 c-25 -37 -81 -125 -127 -197 -91 -143 -115 -181 -213
-332 l-66 -102 87 -70 c48 -39 92 -71 99 -71 6 0 65 29 130 63 253 136 317
169 301 151 -14 -16 -163 -315 -204 -411 l-14 -33 77 -90 c43 -50 82 -89 88
-86 10 3 85 50 546 341 l157 98 -60 73 c-32 40 -63 76 -67 78 -8 5 -45 -17
-319 -195 l-147 -95 102 200 c56 111 102 206 103 212 0 12 -129 144 -142 144
-5 0 -99 -45 -209 -100 -179 -89 -235 -115 -204 -92 11 7 181 267 255 387 l39
64 -84 65 -85 65 -43 -67z"/>
<path d="M1608 5885 c-2 -2 -20 -5 -41 -8 -62 -8 -142 -65 -255 -182 -105
-108 -134 -140 -286 -319 l-75 -89 42 -40 c23 -21 72 -67 108 -101 174 -162
349 -326 400 -373 l55 -53 238 245 c131 135 246 255 256 268 153 196 51 419
-181 392 l-58 -7 3 49 c2 28 2 62 -1 76 -6 32 -66 103 -103 122 -26 14 -94 27
-102 20z m47 -210 c52 -51 34 -85 -131 -255 -56 -58 -122 -126 -146 -153 l-43
-47 -60 54 -60 54 20 23 c86 101 224 247 283 303 57 53 99 60 137 21z m254
-211 c46 -33 9 -123 -95 -234 -24 -25 -71 -75 -106 -111 -35 -36 -80 -84 -100
-107 l-37 -41 -60 66 -60 66 74 76 c40 42 113 118 162 169 128 134 167 154
222 116z"/>
<path d="M3488 5575 c-2 -1 -61 -5 -131 -8 -70 -4 -131 -8 -135 -11 -4 -3 -30
-7 -57 -10 -28 -3 -102 -19 -167 -36 -480 -121 -897 -406 -1185 -810 -75 -105
-85 -121 -155 -254 -67 -125 -149 -343 -173 -459 -2 -10 -6 -26 -9 -35 -3 -9
-7 -33 -10 -52 -3 -19 -8 -46 -10 -59 -3 -13 -8 -49 -12 -80 -3 -31 -8 -65
-10 -76 -6 -28 -5 -298 1 -365 6 -68 15 -146 21 -174 2 -12 7 -34 10 -51 3
-16 12 -57 21 -90 8 -33 16 -64 17 -70 20 -89 102 -293 168 -415 259 -482 694
-840 1215 -1001 132 -40 267 -67 433 -84 55 -6 312 -6 360 -1 19 3 60 7 91 11
31 3 67 8 80 10 13 3 38 8 54 11 283 51 623 205 860 388 184 143 353 329 488
536 115 178 240 484 273 668 3 15 9 45 14 67 5 22 11 65 15 95 3 30 8 73 10
95 7 58 6 310 0 375 -5 49 -13 105 -32 220 -3 19 -20 88 -39 153 -137 477
-436 888 -850 1165 -57 38 -82 53 -194 114 -219 119 -532 208 -790 224 -41 2
-96 6 -122 8 -26 2 -48 2 -50 1z"/>
</g>
</svg>
